#!OML:ASF F:\VICON\USERDATA\INSTALL\Justin_Nancy\Justin_Nancy.ASF
:FULLY-SPECIFIED
:DEGREES
332
root 0.485709 17.4201 6.76753 2.85301 0.967908 0.438211
lowerback -1.50738 -0.424234 -2.1909
upperback -3.14034 -0.53747 1.58877
thorax -2.34505 -0.19708 2.86522
lowerneck -16.1262 -5.05079 -10.8385
upperneck 22.0325 -6.0535 7.50117
head 10.2707 -2.86219 3.6361
rclavicle -2.73329e-015 5.56597e-015
rhumerus -33.3718 -16.4123 -77.555
rradius 28.5858
rwrist 6.58161
rhand -16.7934 11.8505
rfingers 7.12502
rthumb 9.43467 -17.9184
lclavicle -2.73329e-015 5.56597e-015
lhumerus -33.9542 15.23 84.6953
lradius 19.8889
lwrist -14.4024
lhand -13.0777 25.9016
lfingers 7.12502
lthumb 13.0183 55.4754
rfemur -6.33847 4.2849 24.7334
rtibia 28.1034
rfoot -15.646 -13.4362
rtoes -1.13524
lfemur -8.64254 -5.53309 -21.3578
ltibia 30.7125
lfoot -16.6638 6.82904
ltoes 2.60667
333
root 0.484102 17.4196 6.77776 2.86387 1.11319 0.426124
lowerback -1.62072 -0.442104 -2.13284
upperback -3.05249 -0.559459 1.59316
thorax -2.18957 -0.21265 2.83538
lowerneck -16.1211 -5.07379 -10.8812
upperneck 21.8594 -6.06657 7.50832
head 10.2107 -2.86966 3.641
rclavicle 1.71452e-014 -1.15295e-014
rhumerus -33.4003 -16.2978 -77.6578
rradius 28.7612
rwrist 6.27586
rhand -16.5939 12.2619
rfingers 7.12502
rthumb 9.62721 -17.4981
lclavicle 1.71452e-014 -1.15295e-014
lhumerus -33.7071 15.0099 84.791
lradius 19.9675
lwrist -14.4378
lhand -13.4423 25.1965
lfingers 7.12502
lthumb 12.6669 54.7924
rfemur -6.28124 4.15669 24.7577
rtibia 28.0684
rfoot -15.6813 -13.4898
rtoes -0.914375
lfemur -8.62175 -5.71161 -21.3613
ltibia 30.7481
lfoot -16.7133 6.96078
ltoes 2.25999
334
root 0.477642 17.4192 6.77978 2.93209 1.13026 0.373072
lowerback -1.62904 -0.411364 -2.12034
upperback -3.04243 -0.51778 1.62427
thorax -2.17709 -0.191971 2.86023
lowerneck -16.2942 -5.04493 -10.9501
upperneck 21.9923 -6.02562 7.63076
head 10.2934 -2.83979 3.70324
rclavicle -1.40392e-014 1.27222e-014
rhumerus -33.5425 -16.1997 -77.7244
rradius 28.944
rwrist 6.15137
rhand -16.6862 12.3274
rfingers 7.12502
rthumb 9.53809 -17.4367
lclavicle -1.40392e-014 1.27222e-014
lhumerus -33.5141 14.9325 84.7839
lradius 20.008
lwrist -14.907
lhand -13.401 24.6292
lfingers 7.12502
lthumb 12.7066 54.2227
rfemur -6.33222 4.31557 24.8696
rtibia 28.0031
rfoot -15.6927 -13.6271
rtoes 0.10127
lfemur -8.72165 -5.78731 -21.2801
ltibia 30.8001
lfoot -16.7187 7.04299
ltoes 2.24772
335
root 0.468733 17.4197 6.78041 2.99125 1.14413 0.298288
lowerback -1.50937 -0.368609 -2.10822
upperback -3.0835 -0.461774 1.66353
thorax -2.29022 -0.161572 2.89506
lowerneck -16.5108 -5.05079 -11.0342
upperneck 22.2144 -6.02222 7.72373
head 10.4206 -2.83152 3.75322
rclavicle 7.10655e-015 -1.55052e-014
rhumerus -33.602 -16.3267 -77.671
rradius 28.905
rwrist 6.31946
rhand -16.7617 12.5305
rfingers 7.12502
rthumb 9.46529 -17.2369
lclavicle 7.10655e-015 -1.55052e-014
lhumerus -33.4078 14.3261 84.9556
lradius 20.2158
lwrist -14.8827
lhand -12.9742 25.0656
lfingers 7.12502
lthumb 13.1181 54.633
rfemur -6.36474 4.55952 25.0195
rtibia 27.9297
rfoot -15.7791 -13.7624
rtoes 1.63534
lfemur -8.85088 -5.7819 -21.1414
ltibia 30.8607
lfoot -16.7029 6.97717
ltoes 2.50572
336
root 0.464512 17.4211 6.78231 3.05467 1.26471 0.241029
lowerback -1.48342 -0.372392 -2.07565
upperback -3.11229 -0.466545 1.69295
thorax -2.33419 -0.163322 2.90754
lowerneck -16.419 -5.05152 -10.9541
upperneck 22.1408 -6.0271 7.6292
head 10.3711 -2.83908 3.70432
rclavicle 3.15571e-015 -9.14409e-015
rhumerus -33.5921 -16.3047 -77.6805
rradius 28.8355
rwrist 6.22138
rhand -16.6977 12.4115
rfingers 7.12502
rthumb 9.52707 -17.3531
lclavicle 3.15571e-015 -9.14409e-015
lhumerus -33.2057 13.3736 85.297
lradius 20.331
lwrist -14.3718
lhand -12.7279 25.6524
lfingers 7.12502
lthumb 13.3555 55.2044
rfemur -6.39439 4.60277 25.121
rtibia 27.8512
rfoot -15.6655 -13.9024
rtoes 1.48866
lfemur -8.96725 -5.89242 -21.0453
ltibia 30.9262
lfoot -16.7443 6.96222
ltoes 2.29539
